<?xml version="1.0" encoding="utf-8"?>
<!-- Generator: Adobe Illustrator 16.0.0, SVG Export Plug-In . SVG Version: 6.00 Build 0)  -->
<!DOCTYPE svg PUBLIC "-//W3C//DTD SVG 1.1//EN" "http://www.w3.org/Graphics/SVG/1.1/DTD/svg11.dtd">
<svg version="1.1" id="Layer_1" xmlns="http://www.w3.org/2000/svg" xmlns:xlink="http://www.w3.org/1999/xlink" x="0px" y="0px"
	 width="1280px" height="800px" viewBox="0 0 1280 800" enable-background="new 0 0 1280 800" xml:space="preserve">
<g id="Logo">
	<g>
		<path fill="#FFFFFF" d="M602.108,405.855c-0.115-0.117-0.201-0.249-0.259-0.396s-0.106-0.298-0.144-0.455
			c-0.039-0.176-0.067-0.352-0.086-0.527c-0.02-0.156-0.02-0.313,0-0.47c0-0.293,0.057-0.518,0.172-0.674
			c0.211-0.039,0.441-0.083,0.69-0.132c0.249-0.049,0.489-0.093,0.719-0.133c0.269-0.038,0.547-0.077,0.834-0.117
			c0.153-0.156,0.359-0.327,0.618-0.513s0.551-0.356,0.877-0.514c0.249-0.117,0.421-0.117,0.518,0
			c0.096,0.117,0.163,0.362,0.201,0.733c0.479-0.039,0.978-0.078,1.496-0.117c0.518-0.039,1.055-0.059,1.611-0.059
			c0.748-0.02,1.448-0.039,2.1-0.059c0.556-0.02,1.117-0.024,1.683-0.015c0.565,0.01,1.002,0.024,1.309,0.044
			c0.153,0.02,0.273,0.132,0.36,0.337c0.086,0.205,0.115,0.47,0.086,0.792s-0.129,0.67-0.302,1.041
			c-0.173,0.371-0.432,0.733-0.777,1.085c-0.46-0.098-0.944-0.176-1.452-0.234c-0.508-0.059-0.974-0.107-1.395-0.146
			c-0.499-0.039-0.978-0.049-1.438-0.029c-0.556,0-1.112,0.015-1.668,0.044s-1.083,0.063-1.582,0.103
			c-0.019,0.88-0.034,1.901-0.043,3.064c-0.01,1.163-0.024,2.448-0.043,3.855c0.269-0.038,0.527-0.063,0.777-0.073
			c0.249-0.009,0.508-0.023,0.776-0.044c0.69-0.038,1.361-0.077,2.014-0.117c0.651-0.039,1.222-0.024,1.711,0.044
			c0.489,0.069,0.858,0.221,1.107,0.455s0.307,0.606,0.173,1.114l-0.403,1.407c-0.039-0.098-0.139-0.181-0.302-0.249
			c-0.163-0.068-0.35-0.122-0.561-0.161c-0.23-0.059-0.489-0.107-0.776-0.146c-0.671-0.078-1.41-0.088-2.215-0.029
			s-1.582,0.146-2.33,0.264c0,0.978,0.014,1.901,0.043,2.771s0.067,1.656,0.115,2.36c0.047,0.704,0.09,1.31,0.129,1.818
			c0.038,0.508,0.067,0.889,0.086,1.144c0.019,0.176,0,0.313-0.057,0.41c-0.096,0.117-0.211,0.254-0.345,0.411
			c-0.135,0.156-0.307,0.313-0.518,0.469s-0.465,0.288-0.762,0.396s-0.638,0.171-1.021,0.191c-0.172,0-0.259-0.088-0.259-0.265
			v-9.09c-0.326-0.02-0.623-0.274-0.892-0.763s-0.393-1.036-0.374-1.643c0.134-0.039,0.273-0.068,0.417-0.088
			c0.144-0.02,0.283-0.049,0.417-0.088c0.153-0.039,0.297-0.068,0.431-0.088c0-1.407,0.009-2.723,0.029-3.944
			c0.019-1.222,0.048-2.272,0.086-3.152c-0.173,0.02-0.355,0.039-0.546,0.059c-0.154,0.02-0.327,0.039-0.518,0.059
			C602.434,405.816,602.262,405.836,602.108,405.855z"/>
		<path fill="#FFFFFF" d="M616.519,405.855c0.383,0,0.748,0.117,1.093,0.352c0.345,0.235,0.518,0.548,0.518,0.938
			c0,0.294-0.072,0.577-0.215,0.851c-0.144,0.274-0.321,0.519-0.532,0.733c-0.211,0.215-0.451,0.386-0.719,0.513
			c-0.269,0.128-0.518,0.191-0.748,0.191c-0.307,0-0.557-0.054-0.748-0.162c-0.192-0.106-0.34-0.234-0.446-0.381
			s-0.177-0.308-0.216-0.483c-0.039-0.177-0.057-0.342-0.057-0.499c0-0.195,0.028-0.415,0.086-0.66
			c0.058-0.244,0.163-0.469,0.316-0.674c0.153-0.205,0.364-0.376,0.633-0.514C615.751,405.925,616.097,405.855,616.519,405.855z
			 M614.505,411.691c0-0.117,0.153-0.244,0.46-0.382c0.307-0.136,0.647-0.249,1.021-0.337s0.719-0.137,1.036-0.146
			s0.475,0.063,0.475,0.22c0,0.293-0.02,0.709-0.058,1.246c-0.039,0.538-0.086,1.105-0.144,1.701
			c-0.058,0.597-0.115,1.192-0.172,1.789s-0.096,1.1-0.115,1.51c-0.039,0.431-0.077,0.899-0.115,1.408
			c-0.039,0.43-0.068,0.909-0.086,1.437c-0.02,0.528-0.02,1.065,0,1.613c0,0.098-0.096,0.195-0.288,0.293
			c-0.192,0.098-0.403,0.171-0.633,0.22s-0.451,0.073-0.662,0.073c-0.211,0-0.326-0.039-0.345-0.117
			c-0.039-0.078-0.077-0.215-0.115-0.41c-0.039-0.195-0.077-0.474-0.115-0.836c-0.039-0.361-0.067-0.831-0.086-1.407
			c-0.019-0.577-0.01-1.276,0.029-2.098c0.077-1.622,0.086-2.878,0.029-3.768S614.524,412.142,614.505,411.691z M615.799,408.583
			c0.115,0,0.245-0.044,0.388-0.132c0.144-0.088,0.278-0.191,0.403-0.309c0.125-0.117,0.23-0.244,0.316-0.381
			s0.129-0.254,0.129-0.352c0-0.156-0.077-0.235-0.23-0.235c-0.096,0-0.216,0.04-0.359,0.118c-0.144,0.078-0.283,0.171-0.417,0.278
			s-0.244,0.225-0.331,0.352c-0.086,0.128-0.129,0.249-0.129,0.367C615.569,408.485,615.646,408.583,615.799,408.583z"/>
		<path fill="#FFFFFF" d="M622.472,421.28c-0.019,0.117-0.12,0.24-0.302,0.367c-0.183,0.127-0.394,0.239-0.633,0.337
			c-0.24,0.098-0.465,0.161-0.676,0.19s-0.355,0.005-0.431-0.073c-0.077-0.078-0.201-0.225-0.374-0.439
			c-0.172-0.215-0.278-0.567-0.316-1.056c-0.039-0.509-0.058-1.148-0.058-1.921s-0.01-1.628-0.029-2.566v-1.173
			c0-0.352-0.005-0.763-0.014-1.231c-0.01-0.47-0.024-0.958-0.043-1.467c0.172-0.098,0.35-0.19,0.532-0.278s0.35-0.161,0.503-0.22
			c0.173-0.078,0.335-0.137,0.489-0.176c0.402-0.117,0.709-0.186,0.92-0.205c0.21-0.02,0.335,0.049,0.374,0.205
			c0.019,0.117,0.01,0.4-0.029,0.851c-0.039,0.391-0.086,0.982-0.144,1.773c-0.058,0.792-0.154,1.892-0.288,3.3
			c0.249-0.626,0.455-1.163,0.618-1.613c0.163-0.449,0.302-0.812,0.417-1.085c0.115-0.332,0.22-0.597,0.316-0.792
			c0.096-0.254,0.22-0.537,0.374-0.851c0.153-0.313,0.312-0.605,0.475-0.88c0.163-0.273,0.316-0.518,0.46-0.732
			c0.144-0.215,0.254-0.342,0.331-0.382c0.058-0.039,0.23-0.039,0.518,0c0.288,0.04,0.594,0.132,0.92,0.279
			c0.326,0.146,0.642,0.352,0.949,0.615c0.307,0.264,0.508,0.582,0.604,0.953c0.115,0.431,0.158,0.997,0.129,1.701
			c-0.029,0.703-0.077,1.427-0.144,2.17c-0.067,0.743-0.12,1.447-0.158,2.111c-0.039,0.665,0,1.173,0.115,1.524
			c0.039,0.196,0.096,0.372,0.173,0.528c0.038,0.156,0.091,0.298,0.158,0.425c0.067,0.128,0.139,0.221,0.216,0.279
			c-0.46,0.215-0.834,0.371-1.122,0.469s-0.508,0.166-0.662,0.205c-0.192,0.059-0.326,0.078-0.402,0.059
			c-0.173-0.059-0.321-0.205-0.446-0.439c-0.125-0.234-0.235-0.605-0.331-1.114c-0.039-0.156-0.053-0.415-0.043-0.777
			c0.009-0.361,0.033-0.771,0.072-1.231c0.038-0.459,0.082-0.938,0.129-1.437c0.048-0.499,0.086-0.968,0.115-1.408
			c0.029-0.439,0.053-0.821,0.072-1.144s0.019-0.543,0-0.66c-0.096-0.352-0.23-0.601-0.403-0.747
			c-0.172-0.147-0.307-0.162-0.402-0.044c-0.25,0.293-0.513,0.767-0.791,1.422c-0.278,0.655-0.542,1.368-0.791,2.141
			c-0.25,0.772-0.46,1.54-0.633,2.302C622.616,420.107,622.51,420.753,622.472,421.28z"/>
		<path fill="#FFFFFF" d="M636.393,424.477c-0.901,0-1.74-0.244-2.517-0.732c-0.776-0.489-1.462-1.193-2.057-2.111
			c-0.594-0.919-1.06-2.038-1.395-3.358c-0.335-1.319-0.503-2.81-0.503-4.472c0-1.661,0.22-3.206,0.661-4.634
			c0.441-1.427,1.026-2.668,1.755-3.724c0.729-1.056,1.577-1.882,2.545-2.479c0.968-0.596,1.97-0.895,3.005-0.895
			c1.055,0,1.917,0.147,2.589,0.44c0.671,0.293,1.198,0.689,1.582,1.188c0.383,0.499,0.642,1.08,0.776,1.745
			c0.134,0.665,0.182,1.358,0.144,2.082c-0.02,0.469-0.115,0.943-0.287,1.422c-0.173,0.479-0.384,0.904-0.633,1.275
			c-0.25,0.372-0.518,0.655-0.806,0.851c-0.287,0.196-0.565,0.234-0.834,0.117c-0.211-0.059-0.441-0.127-0.69-0.205
			c-0.46-0.156-1.006-0.381-1.639-0.675c0.383-0.273,0.738-0.586,1.064-0.938c0.269-0.313,0.513-0.694,0.733-1.145
			c0.22-0.449,0.331-0.967,0.331-1.554c0-0.508-0.063-0.943-0.188-1.305c-0.125-0.362-0.287-0.655-0.489-0.88
			c-0.201-0.225-0.427-0.391-0.676-0.499c-0.25-0.106-0.499-0.161-0.748-0.161c-0.633,0-1.261,0.255-1.884,0.763
			c-0.623,0.509-1.179,1.217-1.668,2.126c-0.489,0.909-0.887,1.989-1.194,3.24c-0.307,1.252-0.46,2.61-0.46,4.076
			c0,1.154,0.11,2.225,0.331,3.211c0.22,0.987,0.513,1.838,0.877,2.552c0.364,0.714,0.791,1.271,1.28,1.671
			c0.489,0.401,1.011,0.602,1.567,0.602c0.422,0,0.824-0.117,1.208-0.352c0.383-0.235,0.709-0.558,0.978-0.968
			c0.269-0.411,0.484-0.909,0.647-1.496c0.163-0.586,0.244-1.231,0.244-1.936c0-0.645-0.015-1.147-0.043-1.51
			c-0.029-0.361-0.058-0.635-0.086-0.821c-0.029-0.186-0.072-0.317-0.129-0.396c0.019,0,0.172,0.01,0.46,0.029
			c0.288,0.02,0.608,0.063,0.964,0.132c0.354,0.068,0.686,0.176,0.992,0.322s0.508,0.348,0.604,0.602
			c0.076,0.254,0.124,0.729,0.144,1.422c0.019,0.694,0.015,1.457-0.015,2.287c-0.028,0.831-0.058,1.657-0.086,2.479
			c-0.029,0.821-0.043,1.495-0.043,2.023c0,0.137-0.13,0.293-0.389,0.469s-0.547,0.327-0.863,0.455
			c-0.316,0.127-0.608,0.2-0.877,0.22s-0.412-0.049-0.432-0.205v-1.848v-0.938c-0.307,0.625-0.767,1.188-1.38,1.687
			C638.253,424.228,637.429,424.477,636.393,424.477z"/>
		<path fill="#FFFFFF" d="M653.018,413.069c0,0.274-0.071,0.553-0.216,0.836c-0.144,0.283-0.321,0.553-0.532,0.807
			s-0.445,0.474-0.704,0.659c-0.259,0.187-0.504,0.299-0.733,0.338c0.153-0.606,0.201-1.075,0.144-1.408
			c-0.058-0.332-0.153-0.576-0.288-0.732c-0.153-0.176-0.345-0.273-0.575-0.294c-0.345,0-0.676,0.201-0.992,0.602
			c-0.316,0.401-0.589,0.89-0.819,1.466c-0.23,0.577-0.413,1.193-0.547,1.848c-0.134,0.655-0.201,1.246-0.201,1.774
			c-0.02,0.371-0.01,0.733,0.029,1.085c0.019,0.293,0.052,0.597,0.101,0.909c0.047,0.313,0.119,0.557,0.216,0.733
			c-0.115,0.098-0.303,0.215-0.562,0.352s-0.527,0.225-0.805,0.264c-0.278,0.039-0.528-0.01-0.748-0.146
			c-0.221-0.137-0.341-0.43-0.359-0.88c-0.039-0.43-0.063-0.913-0.072-1.451s-0.01-1.075,0-1.613c0.01-0.537,0.023-1.07,0.043-1.598
			c0.02-0.528,0.048-1.017,0.087-1.467c0.038-0.859,0.057-1.524,0.057-1.994c0-0.469-0.01-0.918-0.028-1.349
			c0-0.078,0.13-0.19,0.389-0.337c0.259-0.147,0.546-0.279,0.862-0.396s0.608-0.186,0.878-0.205c0.268-0.02,0.402,0.039,0.402,0.176
			c0,0.216-0.024,0.641-0.072,1.275c-0.048,0.636-0.11,1.296-0.187,1.979c0.134-0.371,0.312-0.771,0.532-1.202
			c0.22-0.43,0.475-0.83,0.762-1.202c0.288-0.371,0.613-0.679,0.979-0.924c0.363-0.244,0.767-0.366,1.208-0.366
			c0.345,0,0.627,0.107,0.848,0.322c0.221,0.216,0.398,0.46,0.532,0.733s0.23,0.548,0.288,0.821S653.018,412.952,653.018,413.069z"
			/>
		<path fill="#FFFFFF" d="M662.25,420.577c0.038,0.137,0.096,0.264,0.173,0.381c0.058,0.098,0.139,0.19,0.244,0.278
			s0.235,0.143,0.389,0.161c-0.135,0.274-0.269,0.46-0.402,0.558c-0.077,0.059-0.145,0.098-0.202,0.117
			c-0.172,0.059-0.431,0.088-0.776,0.088c-0.345,0-0.681-0.107-1.007-0.322c-0.114-0.098-0.221-0.244-0.316-0.44
			c-0.096-0.156-0.177-0.376-0.244-0.659s-0.12-0.65-0.158-1.1c-0.269,0.586-0.57,1.051-0.906,1.393
			c-0.335,0.342-0.666,0.592-0.992,0.748c-0.364,0.215-0.738,0.342-1.121,0.381c-0.479,0.039-0.936-0.044-1.366-0.249
			c-0.432-0.205-0.796-0.518-1.094-0.938c-0.297-0.42-0.522-0.934-0.676-1.54c-0.153-0.605-0.201-1.29-0.144-2.053
			c0.058-0.801,0.211-1.515,0.46-2.141c0.249-0.625,0.547-1.183,0.892-1.671c0.346-0.488,0.709-0.904,1.093-1.247
			c0.384-0.342,0.753-0.625,1.107-0.85s0.662-0.392,0.921-0.499s0.427-0.171,0.503-0.19c0.211-0.059,0.393-0.078,0.547-0.059
			c0.153,0.02,0.287,0.107,0.402,0.264c0.038,0.059,0.087,0.128,0.144,0.205c0.039,0.079,0.087,0.182,0.145,0.309
			s0.104,0.269,0.144,0.425c-0.46,0.216-0.892,0.455-1.294,0.719c-0.403,0.264-0.772,0.582-1.107,0.953
			c-0.336,0.371-0.629,0.821-0.878,1.349c-0.249,0.528-0.441,1.173-0.575,1.936c-0.191,0.958-0.139,1.73,0.158,2.316
			c0.298,0.587,0.705,0.831,1.223,0.733c0.307-0.098,0.604-0.283,0.892-0.558c0.249-0.234,0.513-0.586,0.791-1.056
			c0.277-0.469,0.542-1.114,0.791-1.936c0.096-1.173,0.177-2.097,0.244-2.771c0.067-0.675,0.13-1.188,0.188-1.54
			c0.076-0.41,0.134-0.684,0.173-0.821c0.057-0.098,0.172-0.19,0.345-0.278s0.364-0.161,0.575-0.22s0.402-0.093,0.575-0.103
			s0.288-0.005,0.345,0.015c0.039,0.02,0.058,0.259,0.058,0.719c0,0.459-0.014,1.036-0.043,1.729
			c-0.028,0.694-0.063,1.447-0.101,2.258c-0.038,0.812-0.072,1.579-0.101,2.303s-0.048,1.354-0.058,1.892
			C662.197,420.103,662.212,420.44,662.25,420.577z"/>
		<path fill="#FFFFFF" d="M670.333,410.46c0.536,0,1.035,0.156,1.495,0.469c0.461,0.313,0.854,0.724,1.18,1.231
			c0.325,0.509,0.585,1.091,0.776,1.745c0.191,0.655,0.288,1.334,0.288,2.038s-0.077,1.447-0.23,2.229
			c-0.153,0.782-0.394,1.506-0.719,2.17c-0.326,0.665-0.748,1.217-1.266,1.657c-0.518,0.439-1.15,0.66-1.898,0.66
			c-0.595,0-1.155-0.221-1.683-0.66c-0.527-0.44-0.935-0.992-1.223-1.657c-0.038,0.685-0.125,1.384-0.259,2.097
			c-0.135,0.714-0.201,1.569-0.201,2.566c0,0.293,0.01,0.625,0.028,0.997c0.02,0.371,0.048,0.742,0.087,1.114
			c0.038,0.371,0.096,0.713,0.172,1.026c0.077,0.313,0.163,0.557,0.26,0.733c-0.327,0.195-0.619,0.342-0.878,0.439
			s-0.484,0.166-0.676,0.205c-0.211,0.059-0.412,0.088-0.604,0.088c-0.25,0-0.413-0.107-0.489-0.322
			c-0.077-0.215-0.115-0.597-0.115-1.144c0-0.352,0.015-0.855,0.043-1.511c0.029-0.654,0.067-1.402,0.115-2.243
			s0.096-1.726,0.144-2.653c0.048-0.929,0.096-1.843,0.145-2.742c0.047-0.899,0.086-1.734,0.114-2.507
			c0.029-0.772,0.044-1.423,0.044-1.95c0-0.646-0.011-1.148-0.029-1.511c-0.02-0.361-0.043-0.635-0.072-0.821
			c-0.028-0.186-0.062-0.317-0.101-0.396c-0.038-0.078-0.086-0.166-0.144-0.264c0.173-0.137,0.379-0.259,0.618-0.367
			c0.24-0.106,0.479-0.186,0.72-0.234c0.239-0.049,0.46-0.063,0.661-0.044s0.359,0.068,0.475,0.146
			c0.096,0.099,0.168,0.245,0.216,0.44s0.091,0.488,0.129,0.879c0.364-0.508,0.781-0.952,1.252-1.334
			C669.178,410.65,669.719,410.46,670.333,410.46z M669.211,420.929c0.346,0,0.676-0.166,0.992-0.499
			c0.316-0.332,0.595-0.757,0.834-1.275c0.24-0.518,0.432-1.095,0.575-1.73c0.145-0.635,0.216-1.265,0.216-1.891
			c0-0.685-0.063-1.247-0.187-1.687c-0.125-0.439-0.278-0.792-0.46-1.056c-0.183-0.264-0.374-0.449-0.575-0.558
			c-0.202-0.106-0.379-0.161-0.532-0.161c-0.365,0-0.71,0.152-1.036,0.455s-0.613,0.693-0.862,1.173
			c-0.25,0.479-0.446,1.012-0.59,1.598c-0.144,0.587-0.216,1.174-0.216,1.76c0,0.548,0.053,1.056,0.158,1.525
			c0.105,0.469,0.244,0.879,0.417,1.231c0.173,0.352,0.369,0.626,0.59,0.821C668.755,420.831,668.98,420.929,669.211,420.929z"/>
		<path fill="#FFFFFF" d="M678.156,417.468c0.229-0.703,0.426-1.3,0.589-1.788s0.303-0.88,0.417-1.173
			c0.134-0.353,0.249-0.636,0.346-0.851c0.115-0.313,0.244-0.626,0.388-0.938c0.145-0.313,0.293-0.602,0.446-0.865
			s0.297-0.483,0.432-0.66c0.134-0.176,0.249-0.293,0.345-0.352c0.076-0.039,0.254-0.039,0.532,0
			c0.277,0.039,0.585,0.132,0.92,0.278c0.336,0.146,0.652,0.348,0.949,0.602c0.298,0.254,0.504,0.567,0.619,0.938
			c0.114,0.45,0.153,1.036,0.114,1.76c-0.038,0.723-0.091,1.466-0.158,2.229c-0.067,0.762-0.114,1.485-0.144,2.17
			c-0.028,0.685,0.015,1.202,0.13,1.554c0.076,0.196,0.153,0.392,0.229,0.587c0.077,0.156,0.168,0.318,0.273,0.483
			c0.105,0.167,0.226,0.309,0.359,0.426c-0.556,0.215-1.002,0.376-1.337,0.483c-0.336,0.107-0.59,0.181-0.763,0.22
			c-0.211,0.06-0.354,0.068-0.431,0.03c-0.154-0.06-0.298-0.206-0.432-0.44c-0.135-0.234-0.25-0.605-0.346-1.114
			c-0.038-0.156-0.048-0.43-0.028-0.821c0.019-0.391,0.048-0.83,0.086-1.319c0.038-0.488,0.076-1.002,0.115-1.54
			c0.038-0.537,0.076-1.041,0.115-1.51c0.038-0.47,0.062-0.88,0.071-1.231c0.01-0.353,0.005-0.587-0.014-0.704
			c-0.097-0.332-0.23-0.572-0.403-0.719c-0.172-0.146-0.307-0.161-0.402-0.044c-0.23,0.294-0.484,0.797-0.762,1.511
			c-0.278,0.714-0.542,1.485-0.791,2.316c-0.25,0.831-0.466,1.657-0.647,2.478c-0.183,0.821-0.293,1.496-0.331,2.023
			c0,0.118-0.091,0.24-0.273,0.367c-0.182,0.127-0.384,0.239-0.604,0.337c-0.221,0.098-0.437,0.161-0.647,0.19
			s-0.354-0.005-0.432-0.103c-0.057-0.059-0.177-0.195-0.359-0.41s-0.283-0.576-0.302-1.085c-0.039-0.488-0.039-1.158,0-2.009
			c0.038-0.851,0.048-1.745,0.028-2.684v-2.17c0-0.88-0.005-2.097-0.014-3.651c-0.01-1.554-0.024-3.611-0.043-6.173
			c0.21-0.117,0.402-0.22,0.575-0.308c0.172-0.088,0.335-0.161,0.488-0.22c0.173-0.078,0.336-0.137,0.489-0.176
			c0.824-0.215,1.256-0.215,1.294,0c0.02,0.195,0,0.821-0.058,1.877c-0.019,0.449-0.048,1.017-0.086,1.7
			c-0.038,0.685-0.082,1.516-0.129,2.493c-0.049,0.978-0.106,2.126-0.173,3.445C678.333,414.228,678.252,415.748,678.156,417.468z"
			/>
		<path fill="#FFFFFF" d="M688.511,405.855c0.383,0,0.748,0.117,1.093,0.352c0.346,0.235,0.518,0.548,0.518,0.938
			c0,0.294-0.071,0.577-0.216,0.851c-0.144,0.274-0.321,0.519-0.532,0.733s-0.45,0.386-0.719,0.513
			c-0.269,0.128-0.518,0.191-0.748,0.191c-0.307,0-0.556-0.054-0.747-0.162c-0.192-0.106-0.341-0.234-0.446-0.381
			s-0.178-0.308-0.216-0.483c-0.038-0.177-0.058-0.342-0.058-0.499c0-0.195,0.029-0.415,0.087-0.66
			c0.058-0.244,0.162-0.469,0.316-0.674c0.153-0.205,0.363-0.376,0.633-0.514C687.743,405.925,688.089,405.855,688.511,405.855z
			 M686.497,411.691c0-0.117,0.153-0.244,0.46-0.382c0.307-0.136,0.647-0.249,1.021-0.337s0.719-0.137,1.035-0.146
			s0.475,0.063,0.475,0.22c0,0.293-0.02,0.709-0.058,1.246c-0.038,0.538-0.086,1.105-0.144,1.701
			c-0.058,0.597-0.115,1.192-0.173,1.789s-0.096,1.1-0.114,1.51c-0.039,0.431-0.077,0.899-0.115,1.408
			c-0.039,0.43-0.067,0.909-0.087,1.437c-0.019,0.528-0.019,1.065,0,1.613c0,0.098-0.096,0.195-0.287,0.293
			c-0.192,0.098-0.402,0.171-0.633,0.22s-0.451,0.073-0.661,0.073c-0.212,0-0.327-0.039-0.346-0.117
			c-0.038-0.078-0.077-0.215-0.115-0.41s-0.076-0.474-0.115-0.836c-0.038-0.361-0.067-0.831-0.086-1.407
			c-0.02-0.577-0.01-1.276,0.029-2.098c0.076-1.622,0.086-2.878,0.028-3.768S686.517,412.142,686.497,411.691z M687.792,408.583
			c0.114,0,0.244-0.044,0.388-0.132s0.278-0.191,0.403-0.309c0.124-0.117,0.229-0.244,0.315-0.381
			c0.087-0.137,0.13-0.254,0.13-0.352c0-0.156-0.077-0.235-0.23-0.235c-0.096,0-0.215,0.04-0.359,0.118
			c-0.144,0.078-0.283,0.171-0.417,0.278s-0.244,0.225-0.331,0.352c-0.086,0.128-0.129,0.249-0.129,0.367
			C687.562,408.485,687.638,408.583,687.792,408.583z"/>
		<path fill="#FFFFFF" d="M699.354,418.377c0,0.216-0.072,0.543-0.216,0.982c-0.145,0.44-0.379,0.88-0.705,1.32
			c-0.326,0.439-0.743,0.826-1.251,1.158c-0.509,0.332-1.127,0.498-1.855,0.498c-1.035,0-1.903-0.288-2.603-0.865
			c-0.7-0.576-1.194-1.402-1.481-2.478c-0.23-0.899-0.293-1.862-0.188-2.889s0.379-1.979,0.82-2.859
			c0.44-0.88,1.054-1.627,1.841-2.243c0.786-0.615,1.744-0.953,2.876-1.012c0.575-0.02,1.055,0.088,1.438,0.322
			c0.383,0.235,0.68,0.538,0.892,0.909c0.211,0.372,0.335,0.777,0.374,1.218c0.038,0.439-0.005,0.855-0.13,1.246
			s-0.316,0.718-0.575,0.982c-0.259,0.264-0.59,0.405-0.992,0.425c-0.402,0.04-0.733-0.015-0.992-0.161s-0.46-0.327-0.604-0.543
			c-0.144-0.215-0.239-0.439-0.287-0.674s-0.054-0.44-0.015-0.616c0.058-0.254,0.153-0.488,0.288-0.703
			c0.114-0.195,0.282-0.392,0.503-0.587c0.22-0.195,0.513-0.352,0.877-0.47c-0.058-0.038-0.115-0.059-0.172-0.059
			c-0.058,0-0.115-0.009-0.173-0.029c-0.077,0-0.135-0.009-0.173-0.029c-0.307,0-0.657,0.108-1.05,0.323
			c-0.394,0.215-0.767,0.557-1.122,1.026c-0.354,0.469-0.651,1.07-0.892,1.803c-0.239,0.733-0.359,1.618-0.359,2.654
			c0,0.45,0.048,0.895,0.145,1.334c0.096,0.44,0.244,0.831,0.445,1.174c0.201,0.342,0.45,0.615,0.748,0.82
			c0.297,0.206,0.646,0.309,1.05,0.309c0.46,0,0.867-0.103,1.223-0.309c0.354-0.205,0.656-0.444,0.905-0.718s0.446-0.548,0.59-0.821
			s0.244-0.479,0.302-0.616c0.058-0.117,0.158-0.176,0.303-0.176C699.282,418.025,699.354,418.143,699.354,418.377z"/>
	</g>
	<g>
		<g>
			<path fill="#FFFFFF" d="M597.157,406.326c-1.15,0.484-2.2,0.928-3.151,1.324c-0.698,0.293-1.314,0.549-1.845,0.764l-1.658,0.736
				c-0.212,0.121-0.341,0.227-0.385,0.322c-0.042,0.094,0.003,0.205,0.142,0.342c0.184,0.174,0.366,0.322,0.547,0.445
				c0.183,0.123,0.34,0.215,0.477,0.275l1.724-0.475c0.378-0.143,0.806-0.311,1.285-0.502c-0.086,0.074-0.176,0.182-0.271,0.328
				c-0.18,0.258-0.447,0.652-0.805,1.174c-0.359,0.52-0.787,1.141-1.283,1.859c-0.499,0.721-1.063,1.518-1.696,2.395
				c-0.229,0.316-0.464,0.639-0.707,0.973c-0.061,0.084-0.122,0.168-0.186,0.252l-0.077,0.107l-0.022,0.029
				c-0.032,0.049-0.064,0.092-0.098,0.137c-0.086-0.039-0.184-0.084-0.285-0.133l-2.723-1.332c-1.189-0.578-2.313-1.127-3.256-1.586
				c-0.599,0.691-1.086,1.254-1.556,1.797c-0.944,1.092-1.776,2.045-2.496,2.863l-2.235,2.635c-0.28,0.367-0.441,0.631-0.485,0.785
				c-0.044,0.156,0.047,0.238,0.273,0.244c0.298,0.008,0.59-0.016,0.877-0.068c0.287-0.055,0.533-0.119,0.74-0.193l2.385-2.402
				c0.731-0.811,1.595-1.785,2.591-2.928c0.12-0.135,0.241-0.273,0.37-0.422c0.004,0,0.006-0.002,0.008-0.002l0.003,0.006h0.003
				v0.002c0.005,0.004-0.017-0.008,0.028,0.016c0.253,0.123,0.513,0.246,0.777,0.375c0.529,0.256,1.08,0.521,1.644,0.795
				l3.553,1.703l0.335,0.162l5.966-7.947l-0.395,3.244c-0.014,0.115,0.038,0.182,0.158,0.197c0.27,0.02,0.511,0.008,0.727-0.037
				c0.217-0.043,0.403-0.107,0.563-0.191c0.158-0.084,0.292-0.17,0.398-0.262c0.105-0.092,0.196-0.172,0.274-0.24
				c0.047-0.061,0.072-0.146,0.072-0.264c0.008-0.17,0.018-0.424,0.031-0.76c0.016-0.336,0.035-0.74,0.056-1.205
				c0.023-0.469,0.06-0.988,0.11-1.563c0.023-0.287,0.052-0.582,0.084-0.887c0.059-0.504,0.119-1.023,0.183-1.559
				c0.075-0.582,0.151-1.166,0.221-1.744L597.157,406.326z"/>
		</g>
		<g>
			<path fill="#FFFFFF" d="M595.758,408.955c0.063-0.025,0.125-0.051,0.188-0.08c0.003,0.004,0.002,0.006,0.002,0.006l-0.007,0.059
				C595.879,408.941,595.817,408.947,595.758,408.955z"/>
		</g>
	</g>
</g>
</svg>
